<?xml version="1.0" encoding="UTF-8"?>
<svg width="19px" height="14px" viewBox="0 0 19 14" version="1.1" xmlns="http://www.w3.org/2000/svg" xmlns:xlink="http://www.w3.org/1999/xlink">
    <!-- Generator: sketchtool 50.2 (55047) - http://www.bohemiancoding.com/sketch -->
    <title>40638458-8DC3-429A-8796-7A7118A94041</title>
    <desc>Created with sketchtool.</desc>
    <defs></defs>
    <g id="Portfolio---landing-page" stroke="none" stroke-width="1" fill="none" fill-rule="evenodd">
        <g transform="translate(-953.000000, -3082.000000)" fill="#AD0337" id="Shot">
            <g>
                <g id="Content" transform="translate(10.000000, 1022.000000)">
                    <g id="Case-studies" transform="translate(125.000000, 1632.000000)">
                        <g id="1" transform="translate(0.000000, 122.000000)">
                            <g id="See-case-study" transform="translate(700.000000, 301.000000)">
                                <path d="M118,11.6603056 C118,11.8229463 118.098613,12.0383984 118.197225,12.1421519 L123.805523,18.1009685 C124.066309,18.3711015 124.492072,18.4024145 124.79679,18.1285426 C125.068792,17.8817775 125.07627,17.4036701 124.824364,17.1372759 L120.322303,12.3613429 L135.525931,12.3613429 C135.912904,12.3613429 136.226968,12.0472782 136.226968,11.6603056 C136.226968,11.2733331 135.912904,10.9592684 135.525931,10.9592684 L120.322303,10.9592684 L124.824364,6.1833353 C125.07627,5.91694115 125.058043,5.44958298 124.79679,5.19206864 C124.521048,4.92006618 124.063037,4.94390145 123.805523,5.21964277 L118.197225,11.1784593 C118.032715,11.3406326 118.001869,11.4957955 118,11.6603056 Z" id="arrow" transform="translate(127.113484, 11.659677) rotate(-180.000000) translate(-127.113484, -11.659677) "></path>
                            </g>
                        </g>
                    </g>
                </g>
            </g>
        </g>
    </g>
</svg>