<?xml version="1.0" encoding="UTF-8"?>
<svg width="29px" height="17px" viewBox="0 0 29 17" version="1.1" xmlns="http://www.w3.org/2000/svg" xmlns:xlink="http://www.w3.org/1999/xlink">
    <!-- Generator: sketchtool 50.2 (55047) - http://www.bohemiancoding.com/sketch -->
    <title>4F2465CE-2116-4FBE-A9CD-7E44D2829DD7</title>
    <desc>Created with sketchtool.</desc>
    <defs></defs>
    <g id="Portfolio---landing-page" stroke="none" stroke-width="1" fill="none" fill-rule="evenodd">
        <g transform="translate(-803.000000, -5875.000000)" fill="#FFFFFF" id="Shot">
            <g>
                <g id="Footer" transform="translate(10.000000, 5602.000000)">
                    <g id="Social-media" transform="translate(599.000000, 270.000000)">
                        <g id="behance" transform="translate(194.000000, 3.000000)">
                            <path d="M8.44522771,13.9784707 C8.31676876,13.981229 8.20782256,13.9784707 8.13464974,13.9784707 L3.82937769,13.9784707 L3.82937769,9.43556429 L8.69076318,9.43556429 C8.69076318,9.43556429 10.4512471,9.41184298 10.4512471,11.7696307 C10.4512471,13.7583591 9.13684639,13.9630243 8.44522771,13.9784707 Z M3.82937769,3.0219844 L8.69076318,3.0219844 C8.69076318,3.0219844 9.87236876,3.0219844 9.87236876,4.79004939 C9.87236876,6.55866603 9.17749796,6.81518716 8.38994158,6.81518716 L3.82937769,6.81518716 L3.82937769,3.0219844 Z M10.8686032,7.76183288 C10.8686032,7.76183288 13.4171855,7.5682008 13.4171855,4.5263567 C13.4171855,1.48506426 11.3320311,0 8.69076318,0 L0,0 L0,16.9993518 L8.69076318,16.9993518 C8.69076318,16.9993518 13.9966058,17.1698142 13.9966058,11.9820192 C13.9966058,11.9820192 14.2280487,7.76183288 10.8686032,7.76183288 L10.8686032,7.76183288 Z" id="Fill-144"></path>
                            <path d="M19.7560182,8.48913535 C19.7560182,8.48913535 20.136982,5.67464993 22.8674138,5.67464993 C25.598993,5.67464993 25.5639948,8.48913535 25.5639948,8.48913535 L19.7560182,8.48913535 Z M22.7985649,3 C16.000312,3 16.0060494,10.0154752 16.0060494,10.0154752 C16.0060494,10.0154752 15.5395983,16.9948065 22.7985649,16.9948065 C22.7985649,16.9948065 28.84866,17.3520981 28.84866,12.1396711 L25.7366907,12.1396711 C25.7366907,12.1396711 25.8405378,14.1027006 22.9024119,14.1027006 C22.9024119,14.1027006 19.7910164,14.3177865 19.7910164,10.9255909 L28.9519333,10.9255909 C28.9519333,10.9255909 29.9548319,3 22.7985649,3 L22.7985649,3 Z" id="Fill-145"></path>
                        </g>
                    </g>
                </g>
            </g>
        </g>
    </g>
</svg>