<?xml version="1.0" encoding="UTF-8"?>
<svg width="39px" height="39px" viewBox="0 0 39 39" version="1.1" xmlns="http://www.w3.org/2000/svg" xmlns:xlink="http://www.w3.org/1999/xlink">
    <!-- Generator: sketchtool 50.2 (55047) - http://www.bohemiancoding.com/sketch -->
    <title>0C95216F-D0BF-4B74-9807-FD0B03638EB6</title>
    <desc>Created with sketchtool.</desc>
    <defs></defs>
    <g id="Portfolio---landing-page" stroke="none" stroke-width="1" fill="none" fill-rule="evenodd">
        <g transform="translate(-248.000000, -2228.000000)" id="Shot">
            <g>
                <g id="Content" transform="translate(10.000000, 1022.000000)">
                    <g id="Services" transform="translate(102.000000, 1061.000000)">
                        <g id="1" transform="translate(0.000000, 122.000000)">
                            <g id="discovery_icon" transform="translate(112.000000, 0.000000)">
                                <g id="DNA" transform="translate(43.506097, 42.506097) rotate(-315.000000) translate(-43.506097, -42.506097) translate(34.506097, 22.506097)">
                                    <path d="M11.8148039,9.26013498 C11.8998454,9.26013498 11.8998454,9.34449007 11.9843452,9.34449007 C14.6926717,7.31672329 17.3164985,4.44432405 17.3164985,1.14906784 C17.3164985,0.726751615 16.9779577,0.303894649 16.5543754,0.303894649 C16.1313348,0.303894649 15.7082942,0.642396517 15.7082942,1.06471275 C15.7082942,4.02200782 12.9154678,6.64080103 10.4606406,8.41496178 C10.8842229,8.75346365 11.3917633,9.00652894 11.8148039,9.26013498 Z" id="Fill-1" fill="#1E1E1E"></path>
                                    <path d="M13.5925495,31.5655696 C12.9154678,30.9740024 12.0688449,30.4673311 11.0532225,29.960119 C8.93747775,28.8618805 2.16666127,25.059953 2.16666127,20.4128523 L2.16666127,19.1453629 L2.16666127,19.0610078 C2.16666127,18.9766527 1.91262024,16.3573187 5.29802847,13.6536297 C5.89061033,13.2313134 6.48319219,12.8089972 7.24477363,12.3861402 C6.73723322,12.0481791 6.22915116,11.710218 5.72106909,11.3722569 C5.12902889,11.710218 4.70598828,12.0481791 4.19790621,12.3861402 C0.304415909,15.5126863 0.389457364,18.7230466 0.473957153,19.229718 L0.473957153,20.4128523 C0.558456943,25.8202304 7.32927342,29.960119 10.291641,31.3963187 C11.1377223,31.8191756 11.8998454,32.3258469 12.4918856,32.833059 C15.8772938,35.6211032 15.6237944,38.1555413 15.6237944,38.2404371 C15.5392946,38.6627533 15.8772938,39.0850696 16.3008761,39.1699654 L16.3853759,39.1699654 C16.8084165,39.1699654 17.1469573,38.9163594 17.1469573,38.4940431 C17.3164985,38.3247922 17.7395392,34.9451809 13.5925495,31.5655696 Z" id="Fill-2" fill="#1E1E1E"></path>
                                    <path d="M15.792794,4.69793008 L2.08216148,4.69793008 C1.6585792,4.69793008 1.23553859,4.35942821 1.23553859,3.85275689 C1.23553859,3.34608556 1.57407941,3.00758369 2.08216148,3.00758369 L15.792794,3.00758369 C16.2163763,3.00758369 16.6394169,3.34608556 16.6394169,3.85275689 C16.6394169,4.35942821 16.2163763,4.69793008 15.792794,4.69793008 Z" id="Fill-3" fill="#1E1E1E"></path>
                                    <path d="M14.608172,15.2590802 L3.26678353,15.2590802 C2.84374292,15.2590802 2.42070231,14.9211191 2.42070231,14.413907 C2.42070231,13.9072357 2.75924313,13.5692746 3.26678353,13.5692746 L14.6926717,13.5692746 C15.1157124,13.5692746 15.5392946,13.9072357 15.5392946,14.413907 C15.5392946,14.9211191 15.1157124,15.2590802 14.608172,15.2590802 Z" id="Fill-4" fill="#1E1E1E"></path>
                                    <path d="M14.9445741,24.7669385 L7.70067726,24.7669385 C7.43047555,24.7669385 7.16027384,24.4289774 7.16027384,23.9223061 C7.16027384,23.415094 7.3765044,23.0771329 7.70067726,23.0771329 L14.9985452,23.0771329 C15.268747,23.0771329 15.5392946,23.415094 15.5392946,23.9223061 C15.5392946,24.4289774 15.268747,24.7669385 14.9445741,24.7669385 Z" id="Fill-5" fill="#AD0337"></path>
                                    <path d="M8.83759212,20.4522607 L1.59369528,20.4522607 C1.32349356,20.4522607 1.05329185,20.1142996 1.05329185,19.6076283 C1.05329185,19.1004162 1.26952242,18.7624551 1.59369528,18.7624551 L8.89156326,18.7624551 C9.16176498,18.7624551 9.43231266,19.1004162 9.43231266,19.6076283 C9.43231266,20.1142996 9.16176498,20.4522607 8.83759212,20.4522607 Z" id="Fill-5" fill="#AD0337"></path>
                                    <path d="M15.792794,36.3813805 L2.08216148,36.3813805 C1.6585792,36.3813805 1.23553859,36.0434194 1.23553859,35.5367481 C1.23553859,35.1144318 1.57407941,34.6915749 2.08216148,34.6915749 L15.792794,34.6915749 C16.2163763,34.6915749 16.6394169,35.029536 16.6394169,35.5367481 C16.6394169,36.0434194 16.2163763,36.3813805 15.792794,36.3813805 Z" id="Fill-6" fill="#1E1E1E"></path>
                                    <path d="M10.3761408,12.133075 C11.2227637,12.5553912 11.9843452,13.0620625 12.576927,13.5692746 C15.9623353,16.3573187 15.7082942,18.8922976 15.7082942,18.9766527 L15.7082942,19.0610078 L15.7082942,20.3284972 C15.7082942,23.2852515 12.9154678,25.9045855 10.4606406,27.679287 C10.9687227,27.9323522 11.3917633,28.1859583 11.8998454,28.4395643 C11.9843452,28.4395643 11.9843452,28.5239194 12.0688449,28.5239194 C14.7771715,26.4961526 17.4009983,23.6237534 17.4009983,20.2441421 L17.4009983,19.0610078 C17.4854981,18.5537957 17.5705396,15.3434353 13.6770493,12.2174301 C12.9999676,11.6258629 12.1538864,11.1186508 11.1377223,10.6119795 C9.02197753,9.6824512 2.25116106,5.79616857 2.16666127,1.14906784 C2.16666127,0.726751615 1.82812045,0.303894649 1.32058004,0.388790485 C0.896997766,0.388790485 0.473957153,0.726751615 0.558456943,1.23342294 C0.643498398,6.55644593 7.41431487,10.6119795 10.3761408,12.133075 Z" id="Fill-7" fill="#1E1E1E"></path>
                                    <path d="M5.80611054,30.5516862 C5.21352868,30.8896473 4.79048807,31.2276085 4.282406,31.5655696 C0.135416329,34.9451809 0.558456943,38.3247922 0.558456943,38.4940431 C0.643498398,38.9163594 0.981497556,39.1699654 1.32058004,39.1699654 L1.40507983,39.1699654 C1.82812045,39.0850696 2.16666127,38.7471084 2.08216148,38.2404371 C2.08216148,38.1555413 1.82812045,35.5367481 5.21352868,32.833059 C5.80611054,32.4107428 6.39815073,31.9878858 7.16027384,31.5655696 C6.82173301,31.2276085 6.31365095,30.8896473 5.80611054,30.5516862 Z" id="Fill-8" fill="#1E1E1E"></path>
                                </g>
                            </g>
                        </g>
                    </g>
                </g>
            </g>
        </g>
    </g>
</svg>