<?xml version="1.0" encoding="UTF-8"?>
<svg width="24px" height="24px" viewBox="0 0 24 24" version="1.1" xmlns="http://www.w3.org/2000/svg" xmlns:xlink="http://www.w3.org/1999/xlink">
    <!-- Generator: sketchtool 50.2 (55047) - http://www.bohemiancoding.com/sketch -->
    <title>263E9E24-FE53-4A65-9D77-4320D9E12EE0</title>
    <desc>Created with sketchtool.</desc>
    <defs></defs>
    <g id="Portfolio---landing-page" stroke="none" stroke-width="1" fill="none" fill-rule="evenodd">
        <g transform="translate(-609.000000, -5872.000000)" fill="#FFFFFF" id="Shot">
            <g>
                <g id="Footer" transform="translate(10.000000, 5602.000000)">
                    <g id="Social-media" transform="translate(599.000000, 270.000000)">
                        <g id="dribbble">
                            <path d="M17.726699,20.4996562 C17.6223301,19.8802637 17.0762136,16.8731038 15.7315534,13.1795639 C19.0402913,12.6504591 21.9067961,13.557704 22.1184466,13.6271186 C21.6621359,16.4823429 20.0276699,18.9458355 17.726699,20.4996562 Z M12.0004854,22.2476437 C9.51990291,22.2476437 7.24514563,21.366126 5.4723301,19.899195 C5.60728155,20.0084139 5.70145631,20.0787994 5.70145631,20.0787994 C5.70145631,20.0787994 7.66601942,15.7940213 13.7441748,13.6771166 C13.7665049,13.6688645 13.788835,13.6620687 13.8116505,13.6552728 C15.2538835,17.4022086 15.8495146,20.5404312 16.0009709,21.4360261 C14.7718447,21.9588204 13.4194175,22.2476437 12.0004854,22.2476437 Z M1.75242718,11.9990292 C1.75242718,11.8898103 1.75679612,11.7830185 1.76067961,11.6757413 C1.94126214,11.6796246 7.00533981,11.7941831 12.2815534,10.2156062 C12.5752427,10.7903402 12.8563107,11.3742972 13.1131068,11.9572833 C12.9776699,11.9951458 12.8432039,12.0359209 12.7092233,12.0796084 C7.17864078,13.8669148 4.37378641,18.8434125 4.37378641,18.8434125 C4.37378641,18.8434125 4.37718447,18.846325 4.3776699,18.8477812 C2.74563107,17.0323207 1.75242718,14.6319324 1.75242718,11.9990292 Z M7.6276699,2.7314429 C7.76359223,2.91444521 9.6592233,5.48375875 11.4330097,8.63605841 C6.51213592,9.9437725 2.24174757,9.89231827 1.97135922,9.8874641 C2.63737864,6.71332066 4.76941748,4.08187371 7.6276699,2.7314429 Z M9.54563107,2.04991707 C9.54514563,2.05088791 9.54368932,2.05185874 9.54368932,2.05185874 C9.54368932,2.05185874 9.53203883,2.05477125 9.5131068,2.05865459 C9.52330097,2.05574208 9.53495146,2.05380041 9.54563107,2.04991707 Z M18.7684466,4.30904899 C18.7432039,4.3488532 17.2839806,6.57012257 13.415534,8.02006391 C11.6640777,4.80126208 9.73932039,2.24408398 9.58495146,2.04117956 C10.3597087,1.8538085 11.1674757,1.7523563 12.0004854,1.7523563 C14.5951456,1.7523563 16.9631068,2.71930747 18.7684466,4.30904899 Z M22.2446602,11.897577 C22.0966019,11.8655394 18.6281553,11.1194531 15.1067961,11.5621536 C15.0349515,11.3864326 14.9616505,11.2102261 14.8859223,11.0330488 C14.6728155,10.5316128 14.4432039,10.0345455 14.2048544,9.54621577 C18.2519417,7.89482626 19.8951456,5.51870879 19.9145631,5.49055459 C21.3519417,7.23611504 22.2213592,9.4656365 22.2446602,11.897577 Z M23.7558252,9.58407831 C23.5985437,8.81372113 23.3621359,8.05404312 23.0558252,7.32882974 C22.7553398,6.61672262 22.3830097,5.93131346 21.9495146,5.29056268 C21.5203883,4.65515149 21.0276699,4.05808827 20.4849515,3.51587719 C19.942233,2.97220986 19.3451456,2.47951135 18.7097087,2.05088791 C18.068932,1.61643946 17.3825243,1.24509526 16.6713592,0.943651147 C15.9466019,0.638323692 15.1873786,0.400954654 14.4160194,0.244650297 C13.6262136,0.0825209336 12.8131068,0 12.0004854,0 C11.1868932,0 10.3737864,0.0825209336 9.58300971,0.244650297 C8.81262136,0.400954654 8.05339806,0.638323692 7.32864078,0.943651147 C6.61747573,1.24509526 5.93106796,1.61643946 5.28980583,2.05088791 C4.65436893,2.47951135 4.05728155,2.97220986 3.51407767,3.51587719 C2.97184466,4.05808827 2.47961165,4.65515149 2.05048544,5.29056268 C1.61699029,5.93131346 1.24466019,6.61672262 0.944174757,7.32882974 C0.637378641,8.05404312 0.401456311,8.81372113 0.24368932,9.58407831 C0.082038835,10.3728814 0,11.1864407 0,11.9990292 C0,12.8135593 0.082038835,13.6271186 0.24368932,14.4168925 C0.401456311,15.1872497 0.637378641,15.9469277 0.944174757,16.6711703 C1.24466019,17.3823065 1.61699029,18.0696574 2.05048544,18.7104082 C2.47961165,19.3458193 2.97184466,19.9419117 3.51407767,20.4850936 C4.05728155,21.0277901 4.65436893,21.5195178 5.28980583,21.9491121 C5.93106796,22.3825897 6.61747573,22.7549047 7.32864078,23.055378 C8.05339806,23.3626471 8.81262136,23.5971037 9.58300971,23.7553497 C10.3737864,23.9184499 11.1868932,24 12.0004854,24 C12.8131068,24 13.6262136,23.9184499 14.4160194,23.7553497 C15.1873786,23.5971037 15.9466019,23.3626471 16.6713592,23.055378 C17.3825243,22.7549047 18.068932,22.3825897 18.7097087,21.9491121 C19.3451456,21.5195178 19.942233,21.0277901 20.4849515,20.4850936 C21.0276699,19.9419117 21.5203883,19.3458193 21.9495146,18.7104082 C22.3830097,18.0696574 22.7553398,17.3823065 23.0558252,16.6711703 C23.3621359,15.9469277 23.5985437,15.1872497 23.7558252,14.4168925 C23.9179612,13.6271186 24,12.8135593 24,11.9990292 C24,11.1864407 23.9179612,10.3728814 23.7558252,9.58407831 L23.7558252,9.58407831 Z" id="Fill-11"></path>
                        </g>
                    </g>
                </g>
            </g>
        </g>
    </g>
</svg>