<?xml version="1.0" encoding="UTF-8"?>
<svg width="290px" height="160px" viewBox="0 0 290 160" version="1.1" xmlns="http://www.w3.org/2000/svg" xmlns:xlink="http://www.w3.org/1999/xlink">
    <!-- Generator: sketchtool 50.2 (55047) - http://www.bohemiancoding.com/sketch -->
    <title>CF267E24-F0B5-4F83-BAE0-D1FEC6258CF5</title>
    <desc>Created with sketchtool.</desc>
    <defs></defs>
    <g id="Portfolio---landing-page" stroke="none" stroke-width="1" fill="none" fill-rule="evenodd">
        <g transform="translate(-575.000000, -292.000000)" fill="#FFFFFF" id="Shot">
            <g>
                <g id="Header" transform="translate(10.000000, 10.000000)">
                    <g id="signature" transform="translate(565.000000, 282.000000)">
                        <g id="Page-1">
                            <path d="M187.95621,86.8333465 C188.277904,88.1703762 187.901538,87.4163168 187.95621,86.8333465 M197.179161,78.1687921 C197.092003,78.2163168 197.026238,78.187802 196.973943,78.1022574 C197.166484,78.097505 197.286128,78.1109703 197.179161,78.1687921 M160.380063,72.5933465 C159.396757,67.3640396 166.323478,61.7117624 170.938915,65.5604752 C171.205937,65.7830495 171.10927,65.6721584 171.056183,66.0808713 C171.017358,66.377901 170.231347,67.6721584 169.813779,68.2274059 C167.691074,71.0472079 164.852877,73.457505 161.788861,75.6119604 C161.093178,74.7327525 160.588451,73.7022574 160.380063,72.5933465 M90.1461831,101.239683 C78.9376038,94.9363168 76.3038333,79.5446337 77.5042432,67.8773069 C80.3828497,39.8907723 104.059052,20.398495 128.671019,10.6448317 C134.193697,8.45631683 140.936593,5.68245545 146.950527,7.31572277 C153.998478,9.22859406 154.706046,16.6567129 153.363014,22.717703 C151.998587,28.8721584 149.074025,34.5957228 146.323779,40.2250297 C143.600473,45.798099 140.692549,51.2808713 137.600801,56.658297 C127.978505,73.3988911 116.561538,89.1216634 103.389516,103.233347 C98.7471393,103.892356 94.1966749,103.518495 90.1461831,101.239683 M194.316402,82.4990891 C195.809189,81.5937426 197.289298,80.6646337 198.655309,79.588198 C200.523669,78.1165149 202.467303,75.5874059 200.303396,73.3751287 C198.17356,71.1969109 193.494735,72.3723564 190.921183,72.7200792 C184.745609,73.5533465 178.621538,74.9505743 172.676538,76.8151287 C171.05856,77.3220594 169.447713,78.0214653 167.793287,78.2099802 C172.172604,74.8349307 179.60009,68.6963168 176.208833,62.7628515 C174.002139,58.9014653 168.348724,57.9810693 164.412331,58.907802 C158.819926,60.2250297 154.34315,65.4289901 154.303533,71.2452277 C154.284516,73.9889901 155.218697,76.6487921 156.804189,78.838099 C154.965937,79.9509703 153.137194,81.0052277 151.413041,82.0246337 C143.007003,86.9917624 134.265008,91.4210693 125.347112,95.3933465 C121.915445,96.9220594 118.0155,98.7723564 113.943615,100.321663 C119.407658,93.997703 124.565063,87.4060198 129.383342,80.5822574 C138.211702,68.0792871 145.93632,54.8008713 152.532631,40.9925545 C157.548997,30.4919604 165.756948,13.3299802 153.899434,4.22740594 C142.659954,-4.39992079 124.632413,5.27057426 114.117139,10.8531485 C100.532303,18.0658218 88.1748169,28.2955248 80.2909372,41.6531485 C72.580582,54.7169109 69.0546257,70.7367129 72.7976858,85.6396832 C75.9108279,98.0349307 84.8239699,108.403248 97.5601995,109.26503 C95.268724,111.547802 92.9297077,113.784634 90.5399809,115.969188 C81.183123,124.523644 71.0893798,132.247208 60.3189699,138.941069 C49.5263743,145.648396 36.1301175,154.492752 22.8891612,153.355327 C8.29645628,152.102257 3.81492623,137.429782 6.9534235,124.96404 C9.95484426,113.040079 18.6516749,103.087604 29.5702541,97.6404752 C31.9853361,96.4357228 35.0335055,94.8285941 37.8225765,95.3996832 C40.6591885,95.9810693 44.3745164,90.4246337 38.3938607,89.4994851 C32.2579044,88.5497822 25.408041,92.6955248 20.5905546,96.0745347 C9.33205738,103.972356 1.14312295,116.468198 0.095636612,130.356515 C-0.97007377,144.483248 6.89320492,157.463842 21.6681503,159.169188 C37.0127951,160.940277 52.4739153,150.961663 64.8829044,143.089188 C80.1950628,133.375129 94.0992158,121.64998 106.53673,108.512554 C117.322194,106.401663 128.049817,100.883248 137.677658,96.1458218 C145.776265,92.1608713 153.875664,87.8741386 161.399025,82.8103762 C161.822932,83.0289901 162.254762,83.2317624 162.704025,83.4004752 C169.085609,85.7965149 176.101866,81.8060198 182.305964,80.3509703 C184.373205,79.8654257 186.458669,79.4250297 188.555227,79.0551287 C188.067139,79.358495 187.57509,79.6563168 187.094134,79.9715644 C184.938943,81.3830495 181.213314,83.6903762 183.007986,86.7889901 C183.788451,88.1371089 185.125145,88.3969109 186.539489,88.5220594 C191.604189,88.9695842 196.977904,88.4159208 202.055281,88.238495 C221.193697,87.5707723 240.273478,85.777505 259.29621,83.627802 C268.557194,82.5814653 277.807877,81.448 287.059352,80.3145347 C290.806374,79.8559208 290.853123,73.9097822 287.059352,74.3739406 C256.259134,78.1474059 225.375719,81.928 194.316402,82.4990891 Z" id="Fill-1"></path>
                        </g>
                    </g>
                </g>
            </g>
        </g>
    </g>
</svg>