<?xml version="1.0" encoding="UTF-8"?>
<svg width="24px" height="24px" viewBox="0 0 24 24" version="1.1" xmlns="http://www.w3.org/2000/svg" xmlns:xlink="http://www.w3.org/1999/xlink">
    <!-- Generator: sketchtool 50.2 (55047) - http://www.bohemiancoding.com/sketch -->
    <title>92C2972A-F9EA-4EDE-BBAF-2D95FD4252BE</title>
    <desc>Created with sketchtool.</desc>
    <defs></defs>
    <g id="Portfolio---landing-page" stroke="none" stroke-width="1" fill="none" fill-rule="evenodd">
        <g transform="translate(-673.000000, -5872.000000)" fill="#FFFFFF" id="Shot">
            <g>
                <g id="Footer" transform="translate(10.000000, 5602.000000)">
                    <g id="Social-media" transform="translate(599.000000, 270.000000)">
                        <g id="instagram" transform="translate(64.000000, 0.000000)">
                            <path d="M12,14.8531808 C9.87527421,14.8531808 8.14681918,13.1247258 8.14681918,11 C8.14681918,8.87527421 9.87527421,7.14681918 12,7.14681918 C14.1247258,7.14681918 15.8531808,8.87527421 15.8531808,11 C15.8531808,13.1247258 14.1247258,14.8531808 12,14.8531808 Z M12,5 C8.69163272,5 6,7.69163272 6,11 C6,14.3083673 8.69163272,17 12,17 C15.3083673,17 18,14.3083673 18,11 C18,7.69163272 15.3083673,5 12,5 L12,5 Z" id="Fill-358"></path>
                            <path d="M19.5,4 C18.6713251,4 18,4.67132505 18,5.5 C18,6.32815735 18.6713251,7 19.5,7 C20.3281573,7 21,6.32815735 21,5.5 C21,4.67132505 20.3281573,4 19.5,4" id="Fill-359"></path>
                            <path d="M21.7907403,16.9832907 C21.7907403,18.4591942 21.3369883,19.6820994 20.4788261,20.5204281 C19.6274364,21.3515006 18.3996936,21.7907403 16.9281438,21.7907403 L7.07185617,21.7907403 C5.63610344,21.7907403 4.4214218,21.3481144 3.55890593,20.511237 C2.67558906,19.6540423 2.20877593,18.4146897 2.20877593,16.9281438 L2.20877593,7.01670933 C2.20877593,5.55144821 2.65623929,4.33192913 3.50279161,3.49021426 C4.34547397,2.65188559 5.56063935,2.20925967 7.01670933,2.20925967 L16.9832907,2.20925967 C18.4301695,2.20925967 19.6453349,2.66252797 20.4967246,3.52069014 C21.343277,4.37353113 21.7907403,5.58240784 21.7907403,7.01670933 L21.7907403,16.9832907 Z M22.0650233,1.96448511 C20.7893899,0.679176829 19.032431,0 16.9832907,0 L7.01670933,0 C2.81974482,0 0,2.81974482 0,7.01670933 L0,16.9281438 C0,19.0261423 0.698526596,20.8130933 2.0201157,22.0959829 C3.303489,23.3416242 5.05028924,24 7.07185617,24 L16.9281438,24 C18.9884103,24 20.7497229,23.3435591 22.0224538,22.1008203 C23.3159857,20.8372806 24,19.0677443 24,16.9832907 L24,7.01670933 C24,4.98691875 23.3309818,3.23963477 22.0650233,1.96448511 L22.0650233,1.96448511 Z" id="Fill-360"></path>
                        </g>
                    </g>
                </g>
            </g>
        </g>
    </g>
</svg>