<?xml version="1.0" encoding="UTF-8"?>
<svg width="15px" height="15px" viewBox="0 0 15 15" version="1.1" xmlns="http://www.w3.org/2000/svg" xmlns:xlink="http://www.w3.org/1999/xlink">
    <!-- Generator: sketchtool 50.2 (55047) - http://www.bohemiancoding.com/sketch -->
    <title>3895517A-1A17-4D61-8EF1-E411CCA2799B</title>
    <desc>Created with sketchtool.</desc>
    <defs></defs>
    <g id="Portfolio---landing-page" stroke="none" stroke-width="1" fill="none" fill-rule="evenodd">
        <g transform="translate(-789.000000, -3809.000000)" fill="#AD0337" id="Shot">
            <g>
                <g id="Content" transform="translate(10.000000, 1022.000000)">
                    <g id="Case-studies" transform="translate(125.000000, 1632.000000)">
                        <g id="More-projects-button" transform="translate(475.000000, 1138.000000)">
                            <path d="M185.950833,23.9508333 L185.950833,17.7591667 C185.950833,17.5957067 186.015227,17.4366496 186.131355,17.3205215 C186.247483,17.2043933 186.40654,17.14 186.57,17.14 C186.73346,17.14 186.892517,17.2043933 187.008645,17.3205215 C187.124773,17.4366496 187.189167,17.5957067 187.189167,17.7591667 L187.189167,23.9508333 L193.380833,23.9508333 C193.544293,23.9508333 193.70335,24.0152267 193.819479,24.1313548 C193.935607,24.247483 194,24.40654 194,24.57 C194,24.73346 193.935607,24.892517 193.819479,25.0086452 C193.70335,25.1247733 193.544293,25.1891667 193.380833,25.1891667 L187.189167,25.1891667 L187.189167,31.3808333 C187.189167,31.5442933 187.124773,31.7033504 187.008645,31.8194785 C186.892517,31.9356067 186.73346,32 186.57,32 C186.40654,32 186.247483,31.9356067 186.131355,31.8194785 C186.015227,31.7033504 185.950833,31.5442933 185.950833,31.3808333 L185.950833,25.1891667 L179.759167,25.1891667 C179.595707,25.1891667 179.43665,25.1247733 179.320521,25.0086452 C179.204393,24.892517 179.14,24.73346 179.14,24.57 C179.14,24.40654 179.204393,24.247483 179.320521,24.1313548 C179.43665,24.0152267 179.595707,23.9508333 179.759167,23.9508333 L185.950833,23.9508333 Z" id="plus"></path>
                        </g>
                    </g>
                </g>
            </g>
        </g>
    </g>
</svg>