<?xml version="1.0" encoding="UTF-8"?>
<svg width="87px" height="87px" viewBox="0 0 87 87" version="1.1" xmlns="http://www.w3.org/2000/svg" xmlns:xlink="http://www.w3.org/1999/xlink">
    <!-- Generator: sketchtool 50.2 (55047) - http://www.bohemiancoding.com/sketch -->
    <title>E2987290-8C2E-4A29-9DF7-C7DE1E28361B</title>
    <desc>Created with sketchtool.</desc>
    <defs></defs>
    <g id="Portfolio---landing-page" stroke="none" stroke-width="1" fill="none" fill-rule="evenodd" opacity="0.5">
        <g transform="translate(-1124.000000, -2205.000000)" id="Shot">
            <g>
                <g id="Content" transform="translate(10.000000, 1022.000000)">
                    <g id="Services" transform="translate(102.000000, 1061.000000)">
                        <g id="4" transform="translate(920.000000, 122.000000)">
                            <g id="prototyping_icon" transform="translate(92.000000, 0.000000)">
                                <g id="square">
                                    <rect id="Rectangle-2" stroke="#E5E7E8" stroke-width="2" x="1" y="1" width="85" height="85"></rect>
                                    <path d="M77,79 L77,77 L87,77 L87,79 L79,79 L79,87 L77,87 L77,79 Z" id="Combined-Shape" fill="#AD0337" transform="translate(82.000000, 82.000000) rotate(-180.000000) translate(-82.000000, -82.000000) "></path>
                                    <path d="M0,2 L1.2246468e-16,-2.22044605e-16 L10,4.4408921e-16 L10,2 L2,2 L2,10 L0,10 L0,2 Z" id="Combined-Shape" fill="#AD0337"></path>
                                </g>
                                <g id="Prototyping" transform="translate(20.000000, 22.000000)">
                                    <path d="M27.9060933,29.6143881 L19.0939067,29.6143881 C18.7436,29.6143881 18.4208667,29.428209 18.2466533,29.124806 L13.84056,21.4895821 C13.6669733,21.1861791 13.6669733,20.8138209 13.84056,20.5104179 L18.2466533,12.875194 C18.4227467,12.571791 18.7461067,12.3856119 19.0939067,12.3856119 L27.9060933,12.3856119 C28.2564,12.3856119 28.5791333,12.571791 28.7533467,12.875194 L33.15944,20.5104179 C33.3355333,20.8138209 33.3355333,21.1861791 33.15944,21.4895821 L28.7533467,29.124806 C28.5791333,29.428209 28.2564,29.6143881 27.9060933,29.6143881 Z M19.65916,27.6554328 L27.34084,27.6554328 L31.18168,21 L27.34084,14.3445672 L19.65916,14.3445672 L15.81832,21 L19.65916,27.6554328 Z" id="Fill-1" fill="#1E1E1E"></path>
                                    <path d="M23.6037123,20.4965527 C23.1434794,20.4965527 22.7668277,20.1937199 22.7668277,19.8242122 L22.7668277,14.4472092 C22.7668277,14.0777016 23.1434794,13.7752989 23.6037123,13.7752989 C24.0644811,13.7752989 24.4411327,14.0777016 24.4411327,14.4472092 L24.4411327,19.8242122 C24.4411327,20.1954405 24.0644811,20.4965527 23.6037123,20.4965527 Z" id="Fill-5" stroke="#DF1653" stroke-width="0.5" fill="#AD0337" transform="translate(23.603980, 17.135926) rotate(-270.000000) translate(-23.603980, -17.135926) "></path>
                                    <path d="M14.6878133,21.9791642 L5.74026667,21.9791642 C5.19945333,21.9791642 4.76141333,21.5409851 4.76141333,21 C4.76141333,20.4590149 5.19945333,20.0208358 5.74026667,20.0208358 L14.6878133,20.0208358 C15.2286267,20.0208358 15.6666667,20.4590149 15.6666667,21 C15.6666667,21.5409851 15.2286267,21.9791642 14.6878133,21.9791642 Z" id="Fill-2" fill="#1E1E1E"></path>
                                    <path d="M3.35830667,24.3618806 C1.50776,24.3618806 0,22.8536418 0,21 C0,19.1463582 1.50776,17.6406269 3.35830667,17.6406269 C5.21136,17.6406269 6.71724,19.1488657 6.71724,21 C6.71974667,22.8536418 5.21136,24.3618806 3.35830667,24.3618806 Z M3.35830667,19.5995821 C2.58750667,19.5995821 1.95833333,20.2264478 1.95833333,21 C1.95833333,21.7735522 2.58750667,22.4029254 3.35830667,22.4029254 C4.13224,22.4029254 4.76141333,21.7735522 4.76141333,21 C4.76141333,20.2264478 4.13224,19.5995821 3.35830667,19.5995821 Z" id="Fill-3" fill="#1E1E1E"></path>
                                    <path d="M41.26224,21.9791642 L32.3121867,21.9791642 C31.7713733,21.9791642 31.3333333,21.5409851 31.3333333,21 C31.3333333,20.4590149 31.7713733,20.0208358 32.3121867,20.0208358 L41.26224,20.0208358 C41.8030533,20.0208358 42.2410933,20.4590149 42.2410933,21 C42.2410933,21.5409851 41.8005467,21.9791642 41.26224,21.9791642 Z" id="Fill-4" fill="#1E1E1E"></path>
                                    <path d="M43.6391867,24.3618806 C41.7861333,24.3618806 40.2802533,22.8536418 40.2802533,21 C40.2802533,19.1463582 41.7861333,17.6406269 43.6391867,17.6406269 C45.49224,17.6406269 47,19.1463582 47,21 C47,22.8536418 45.49224,24.3618806 43.6391867,24.3618806 Z M43.6391867,19.5995821 C42.86776,19.5995821 42.2385867,20.2289552 42.2385867,21 C42.2385867,21.7735522 42.86776,22.4029254 43.6391867,22.4029254 C44.4124933,22.4029254 45.0416667,21.7735522 45.0416667,21 C45.0416667,20.2264478 44.4124933,19.5995821 43.6391867,19.5995821 Z" id="Fill-5" fill="#1E1E1E"></path>
                                    <path d="M19.10832,14.3395522 C18.7705467,14.3395522 18.4402933,14.163403 18.2591867,13.8499701 L13.7966933,6.09250746 C13.5272267,5.62235821 13.6889067,5.02495522 14.1564,4.75540299 C14.6264,4.48585075 15.2236133,4.64758209 15.49308,5.11522388 L19.9555733,12.8726866 C20.2244133,13.3428358 20.06336,13.9402388 19.5958667,14.209791 C19.44108,14.2956716 19.2725067,14.3395522 19.10832,14.3395522 Z" id="Fill-6" fill="#1E1E1E"></path>
                                    <path d="M13.4564133,6.89802985 C11.60336,6.89802985 10.09748,5.38979104 10.09748,3.53865672 C10.09748,1.68501493 11.6058667,0.178656716 13.4564133,0.178656716 C15.3094667,0.178656716 16.81472,1.68689552 16.81472,3.53865672 C16.8172267,5.38979104 15.3094667,6.89802985 13.4564133,6.89802985 Z M13.4564133,2.13510448 C12.68248,2.13510448 12.0558133,2.76447761 12.0558133,3.53614925 C12.0558133,4.30970149 12.6849867,4.93656716 13.4564133,4.93656716 C14.22972,4.93656716 14.8563867,4.30719403 14.8563867,3.53614925 C14.8563867,2.76197015 14.22972,2.13510448 13.4564133,2.13510448 Z" id="Fill-7" fill="#1E1E1E"></path>
                                    <path d="M32.35668,37.3793731 C32.0164,37.3793731 31.6880267,37.2032239 31.50692,36.889791 L27.0444267,29.1298209 C26.7755867,28.6596716 26.93664,28.0622687 27.4041333,27.7927164 C27.8741333,27.5231642 28.4719733,27.6848955 28.7408133,28.1525373 L33.2033067,35.9125075 C33.4727733,36.3826567 33.3110933,36.9800597 32.8436,37.2496119 C32.68944,37.3373731 32.5227467,37.3793731 32.35668,37.3793731 Z" id="Fill-8" fill="#1E1E1E"></path>
                                    <path d="M33.54108,41.8238507 C31.6880267,41.8238507 30.1827733,40.3149851 30.1827733,38.4638507 C30.1827733,36.610209 31.6905333,35.1044776 33.54108,35.1044776 C35.3941333,35.1044776 36.90252,36.6127164 36.90252,38.4638507 C36.90252,40.3174925 35.3941333,41.8238507 33.54108,41.8238507 Z M33.54108,37.0609254 C32.7677733,37.0609254 32.1411067,37.6902985 32.1411067,38.4613433 C32.1411067,39.2355224 32.77028,39.8623881 33.54108,39.8623881 C34.3150133,39.8623881 34.9441867,39.2330149 34.9441867,38.4613433 C34.9441867,37.687791 34.3150133,37.0609254 33.54108,37.0609254 Z" id="Fill-9" fill="#1E1E1E"></path>
                                    <path d="M27.9430667,14.3690149 C27.7763733,14.3690149 27.6052933,14.3251343 27.4486267,14.2342388 C26.9811333,13.9621791 26.8244667,13.3622687 27.09832,12.8946269 L31.6122,5.16662687 C31.8841733,4.70149254 32.4838933,4.54226866 32.9513867,4.81432836 C33.41888,5.08576119 33.5755467,5.68567164 33.3016933,6.15331343 L28.7878133,13.8819403 C28.6085867,14.1953731 28.28084,14.3690149 27.9430667,14.3690149 Z" id="Fill-10" fill="#1E1E1E"></path>
                                    <path d="M33.6588933,6.96385075 C31.80584,6.96385075 30.29808,5.45561194 30.29808,3.60447761 C30.29808,1.75083582 31.80584,0.245104478 33.6588933,0.245104478 C35.5119467,0.245104478 37.0197067,1.75334328 37.0197067,3.60447761 C37.0197067,5.4581194 35.5119467,6.96385075 33.6588933,6.96385075 Z M33.6588933,2.2040597 C32.8855867,2.2040597 32.2564133,2.83343284 32.2564133,3.60447761 C32.2564133,4.37802985 32.8855867,5.00489552 33.6588933,5.00489552 C34.4322,5.00489552 35.0613733,4.37552239 35.0613733,3.60447761 C35.0613733,2.83092537 34.4322,2.2040597 33.6588933,2.2040597 Z" id="Fill-11" fill="#1E1E1E"></path>
                                    <path d="M14.5405467,37.3204478 C14.37448,37.3204478 14.2027733,37.2765672 14.0486133,37.1856716 C13.58112,36.9142388 13.4244533,36.3143284 13.6958,35.8466866 L18.2103067,28.1180597 C18.4816533,27.6504179 19.0813733,27.491194 19.5488667,27.7657612 C20.01636,28.0378209 20.1730267,28.6377313 19.90168,29.1053731 L15.3878,36.8333731 C15.2066933,37.146806 14.87832,37.3204478 14.5405467,37.3204478 Z" id="Fill-12" fill="#1E1E1E"></path>
                                    <path d="M13.3411067,41.7548955 C11.4880533,41.7548955 9.9828,40.2466567 9.9828,38.3955224 C9.9828,36.5418806 11.49056,35.0361493 13.3411067,35.0361493 C15.19416,35.0361493 16.6994133,36.5443881 16.6994133,38.3955224 C16.6994133,40.2491642 15.19416,41.7548955 13.3411067,41.7548955 Z M13.3411067,36.9951045 C12.5678,36.9951045 11.9411333,37.6244776 11.9411333,38.3955224 C11.9411333,39.1690746 12.5703067,39.7959403 13.3411067,39.7959403 C14.1144133,39.7959403 14.74108,39.1665672 14.74108,38.3955224 C14.74108,37.6219701 14.1144133,36.9951045 13.3411067,36.9951045 Z" id="Fill-13" fill="#1E1E1E"></path>
                                </g>
                            </g>
                        </g>
                    </g>
                </g>
            </g>
        </g>
    </g>
</svg>