<?xml version="1.0" encoding="UTF-8"?>
<svg width="26px" height="22px" viewBox="0 0 26 22" version="1.1" xmlns="http://www.w3.org/2000/svg" xmlns:xlink="http://www.w3.org/1999/xlink">
    <!-- Generator: sketchtool 50.2 (55047) - http://www.bohemiancoding.com/sketch -->
    <title>CCFA401B-C637-465D-BA89-F18A2AB6EA9C</title>
    <desc>Created with sketchtool.</desc>
    <defs></defs>
    <g id="Portfolio---landing-page" stroke="none" stroke-width="1" fill="none" fill-rule="evenodd">
        <g transform="translate(-737.000000, -5873.000000)" fill="#FFFFFF" id="Shot">
            <g>
                <g id="Footer" transform="translate(10.000000, 5602.000000)">
                    <g id="Social-media" transform="translate(599.000000, 270.000000)">
                        <g id="twitter" transform="translate(128.000000, 1.000000)">
                            <path d="M26,2.6041063 C25.0441914,3.04645819 24.016077,3.34483964 22.9362402,3.47836947 C24.0382437,2.79148766 24.8837464,1.70346688 25.2822199,0.405535018 C24.2509388,1.04241183 23.1098796,1.50454591 21.8949313,1.75402138 C20.9217059,0.674792687 19.5352293,0 18.0015021,0 C15.0554371,0 12.667235,2.48651214 12.667235,5.55385153 C12.667235,5.98905985 12.7142074,6.41272854 12.8049855,6.81936257 C8.37216572,6.58802078 4.44126423,4.37681087 1.81028358,1.01658507 C1.35111544,1.8364472 1.08828127,2.79038865 1.08828127,3.80862224 C1.08828127,5.73573784 2.02983984,7.43535818 3.46117776,8.43161155 C2.58717496,8.40248776 1.76436677,8.15301229 1.04500335,7.73648716 C1.04447557,7.75956639 1.04447557,7.78319512 1.04447557,7.80682386 C1.04447557,10.4972025 2.88325924,12.7419323 5.32371151,13.2524228 C4.87615452,13.3793586 4.40484745,13.4474973 3.91823478,13.4474973 C3.57412257,13.4474973 3.24003816,13.4128784 2.91439823,13.3474873 C3.59365041,15.5537516 5.56332339,17.159956 7.8971642,17.204466 C6.07157502,18.6941752 3.77203987,19.582176 1.2724763,19.582176 C0.841808254,19.582176 0.41747356,19.5552503 0,19.5046958 C2.36128535,21.0806774 5.16484989,22 8.17688732,22 C17.9888354,22 23.3537137,13.5370666 23.3537137,6.19787192 C23.3537137,5.95718853 23.3489637,5.71705465 23.3389359,5.47911879 C24.3807726,4.69607353 25.2853866,3.71795384 26,2.6041063" id="Fill-131"></path>
                        </g>
                    </g>
                </g>
            </g>
        </g>
    </g>
</svg>