<?xml version="1.0" encoding="UTF-8"?>
<svg width="87px" height="87px" viewBox="0 0 87 87" version="1.1" xmlns="http://www.w3.org/2000/svg" xmlns:xlink="http://www.w3.org/1999/xlink">
    <!-- Generator: sketchtool 50.2 (55047) - http://www.bohemiancoding.com/sketch -->
    <title>DA1EA47B-21E5-41FE-8A30-C643C336A260</title>
    <desc>Created with sketchtool.</desc>
    <defs></defs>
    <g id="Portfolio---landing-page" stroke="none" stroke-width="1" fill="none" fill-rule="evenodd" opacity="0.5">
        <g transform="translate(-824.000000, -2205.000000)" id="Shot">
            <g>
                <g id="Content" transform="translate(10.000000, 1022.000000)">
                    <g id="Services" transform="translate(102.000000, 1061.000000)">
                        <g id="3" transform="translate(625.000000, 122.000000)">
                            <g id="ui_icon" transform="translate(87.000000, 0.000000)">
                                <g id="square">
                                    <rect id="Rectangle-2" stroke="#E5E7E8" stroke-width="2" x="1" y="1" width="85" height="85"></rect>
                                    <path d="M77,79 L77,77 L87,77 L87,79 L79,79 L79,87 L77,87 L77,79 Z" id="Combined-Shape" fill="#AD0337" transform="translate(82.000000, 82.000000) rotate(-180.000000) translate(-82.000000, -82.000000) "></path>
                                    <path d="M0,2 L1.2246468e-16,-2.22044605e-16 L10,4.4408921e-16 L10,2 L2,2 L2,10 L0,10 L0,2 Z" id="Combined-Shape" fill="#AD0337"></path>
                                </g>
                                <g id="UI" transform="translate(24.000000, 23.000000)" stroke-width="0.5">
                                    <path d="M10.2596,20.2057895 L3.53652,24.2884211 C3.3332,24.4121053 3.20944,24.6342105 3.20944,24.8726316 L3.20944,33.0384211 C3.20944,33.4168421 3.51,33.7210526 3.8818,33.7210526 C4.2536,33.7210526 4.55416,33.4168421 4.55416,33.0384211 L4.55416,25.2589474 L10.95224,21.3731579 C11.27152,21.18 11.37292,20.7605263 11.18208,20.44 C10.99124,20.1173684 10.57888,20.0121053 10.2596,20.2057895" id="Fill-1" stroke="#DF1653" fill="#AD0337"></path>
                                    <path d="M37.64124,33.4805263 L28.8704,38.5610526 L20.17236,34.7884211 L20.17236,23.38 L28.91304,18.3242105 L37.65528,23.38 L37.64124,33.4805263 Z M18.8136,34.7884211 L10.12804,38.5610526 L1.34472,33.4805263 L1.34472,23.38 L10.08696,18.3242105 L15.91304,21.6942105 L18.82764,23.38 L18.8136,34.7884211 Z M19.5,1.99 L28.24068,7.04578947 L28.2282,17.1463158 L19.5,22.2021053 L12.94332,18.4105263 L10.75932,17.1463158 L10.75932,7.04578947 L19.5,1.99 Z M38.66096,22.3952632 L29.57292,17.1378947 L29.58696,6.65315789 C29.58696,6.40842105 29.45696,6.18210526 29.24792,6.06105263 L19.83332,0.616842105 C19.62584,0.495263158 19.37416,0.495263158 19.16668,0.616842105 L9.75208,6.06105263 C9.54304,6.18210526 9.41304,6.40842105 9.41304,6.65105263 L9.41304,17.1463158 L0.33904,22.3952632 C0.13,22.5163158 0,22.7426316 0,22.9852632 L0,33.8752632 C0,34.1178947 0.13,34.3442105 0.33904,34.4652632 L9.75208,39.9094737 C9.85556,39.9689474 9.97152,40 10.08696,40 C10.1764,40 10.26584,39.9815789 10.35112,39.9447368 L19.49376,35.9747368 L28.64888,39.9447368 C28.73416,39.9815789 28.8236,40 28.91304,40 C29.02848,40 29.14444,39.9689474 29.24792,39.9094737 L38.64848,34.4652632 C38.85596,34.3442105 38.98596,34.1178947 38.98596,33.8752632 L39,22.9852632 C39,22.7426316 38.87,22.5163158 38.66096,22.3952632 Z" id="Fill-2" stroke="#000000" fill="#1E1E1E"></path>
                                    <path d="M29.08776,20.2057895 L22.36416,24.2884211 C22.16084,24.4121053 22.03708,24.6342105 22.03708,24.8726316 L22.03708,33.7210526 C22.03708,34.0973684 22.33764,34.4015789 22.70944,34.4015789 C23.08124,34.4015789 23.3818,34.0973684 23.3818,33.7210526 L23.3818,25.2589474 L29.7804,21.3731579 C30.09916,21.18 30.20056,20.7605263 30.00972,20.44 C29.81888,20.1173684 29.40652,20.0121053 29.08776,20.2057895" id="Fill-3" stroke="#DF1653" fill="#AD0337"></path>
                                    <path d="M13.2964,17.3868421 C13.66612,17.3868421 13.96876,17.0826316 13.96876,16.7063158 L13.96876,8.92473684 L20.36528,5.03894737 C20.68404,4.84578947 20.78804,4.42842105 20.59668,4.10578947 C20.40584,3.78315789 19.9914,3.67789474 19.67472,3.87105263 L12.94904,7.95631579 C12.74832,8.07789474 12.62404,8.3 12.62404,8.53842105 L12.62404,16.7063158 C12.62404,17.0826316 12.9246,17.3868421 13.2964,17.3868421" id="Fill-4" stroke="#DF1653" fill="#AD0337"></path>
                                </g>
                            </g>
                        </g>
                    </g>
                </g>
            </g>
        </g>
    </g>
</svg>