<?xml version="1.0" encoding="UTF-8"?>
<svg width="87px" height="87px" viewBox="0 0 87 87" version="1.1" xmlns="http://www.w3.org/2000/svg" xmlns:xlink="http://www.w3.org/1999/xlink">
    <!-- Generator: sketchtool 50.2 (55047) - http://www.bohemiancoding.com/sketch -->
    <title>A2B2B5D5-BE53-4CC1-B067-8FC79A952D88</title>
    <desc>Created with sketchtool.</desc>
    <defs></defs>
    <g id="Portfolio---landing-page" stroke="none" stroke-width="1" fill="none" fill-rule="evenodd" opacity="0.5">
        <g transform="translate(-525.000000, -2205.000000)" id="Shot">
            <g>
                <g id="Content" transform="translate(10.000000, 1022.000000)">
                    <g id="Services" transform="translate(102.000000, 1061.000000)">
                        <g id="2" transform="translate(320.000000, 122.000000)">
                            <g id="ux_icon" transform="translate(93.000000, 0.000000)">
                                <g id="square">
                                    <rect id="Rectangle-2" stroke="#E5E7E8" stroke-width="2" x="1" y="1" width="85" height="85"></rect>
                                    <path d="M77,79 L77,77 L87,77 L87,79 L79,79 L79,87 L77,87 L77,79 Z" id="Combined-Shape" fill="#AD0337" transform="translate(82.000000, 82.000000) rotate(-180.000000) translate(-82.000000, -82.000000) "></path>
                                    <path d="M0,2 L1.2246468e-16,-2.22044605e-16 L10,4.4408921e-16 L10,2 L2,2 L2,10 L0,10 L0,2 Z" id="Combined-Shape" fill="#AD0337"></path>
                                </g>
                                <g id="UX" transform="translate(23.000000, 29.000000)" stroke-width="0.5">
                                    <path d="M20.8558904,26.8947551 C20.7041096,26.8947551 20.550137,26.8556327 20.4153425,26.7696735 L10.1413699,20.5040204 C9.88219178,20.3469796 9.7260274,20.0670612 9.7260274,19.7678571 L9.7260274,7.23434694 C9.7260274,6.93293878 9.88219178,6.65302041 10.1369863,6.49818367 L20.4109589,0.230326531 C20.6849315,0.0622653061 21.0252055,0.0622653061 21.2991781,0.230326531 L31.5731507,6.49818367 C31.8323288,6.65522449 31.9863014,6.93293878 31.9863014,7.23434694 L31.9863014,19.7678571 C31.9863014,20.0670612 31.8323288,20.3469796 31.5753425,20.5040204 L21.3013699,26.7696735 C21.1643836,26.8512245 21.010411,26.892551 20.8558904,26.892551 L20.8558904,26.8947551 Z M11.4383562,19.2835102 L20.8558904,25.0240408 L30.2739726,19.2835102 L30.2739726,7.71869388 L20.8558904,1.9737551 L11.4383562,7.71869388 L11.4383562,19.2835102 Z" id="Fill-1" stroke="#1E1E1E" fill="#1E1E1E"></path>
                                    <path d="M31.129863,8.0972449 C30.8520548,8.0972449 30.5819178,7.96169388 30.4175342,7.71208163 C30.1561644,7.31589796 30.2630137,6.78030612 30.6591781,6.51967347 L38.3649315,1.39022449 C38.7583562,1.12793878 39.2871233,1.23979592 39.5506849,1.63597959 C39.8071233,2.02995918 39.700274,2.5677551 39.3063014,2.82618367 L31.6010959,7.95563265 C31.4575342,8.05206122 31.2947945,8.0972449 31.129863,8.0972449 Z" id="Fill-2" stroke="#1E1E1E" fill="#1E1E1E"></path>
                                    <path d="M1.16438356,26.8947551 C0.886027397,26.8947551 0.616438356,26.757 0.449315068,26.5068367 C0.190684932,26.1112041 0.297534247,25.5750612 0.69369863,25.3144286 L10.1112329,19.0487755 C10.5030137,18.7842857 11.0383562,18.8983469 11.2969863,19.2945306 C11.5561644,19.6879592 11.4493151,20.221898 11.0531507,20.4847347 L1.63506849,26.7503878 C1.49424658,26.8512245 1.32931507,26.8947551 1.16438356,26.8947551 Z" id="Fill-3" stroke="#1E1E1E" fill="#1E1E1E"></path>
                                    <path d="M10.0876712,8.0972449 C9.94246575,8.0972449 9.79671233,8.06087755 9.66410959,7.98538776 L0.740821918,2.85869388 C0.329863014,2.6217551 0.188493151,2.09663265 0.419726027,1.68336735 C0.656986301,1.27010204 1.1769863,1.13014286 1.59013699,1.36046939 L10.5139726,6.48936735 C10.9249315,6.72630612 11.0657534,7.25142857 10.8345205,7.66469388 C10.6739726,7.94240816 10.3852055,8.09944898 10.0876712,8.09944898 L10.0876712,8.0972449 Z" id="Fill-4" stroke="#1E1E1E" fill="#1E1E1E"></path>
                                    <path d="M27.1572603,18.2850612 C26.6865753,18.2850612 26.3013699,17.8971429 26.3013699,17.4238163 L26.3013699,10.5360612 C26.3013699,10.0627347 26.6865753,9.67536735 27.1572603,9.67536735 C27.6284932,9.67536735 28.0136986,10.0627347 28.0136986,10.5360612 L28.0136986,17.4238163 C28.0136986,17.8993469 27.6284932,18.2850612 27.1572603,18.2850612 Z" id="Fill-5" stroke="#DF1653" fill="#AD0337"></path>
                                </g>
                            </g>
                        </g>
                    </g>
                </g>
            </g>
        </g>
    </g>
</svg>